%TF.GenerationSoftware,KiCad,Pcbnew,(6.0.8)*%
%TF.CreationDate,2024-10-31T17:47:46+09:00*%
%TF.ProjectId,MIRS2405_PWM_GD,4d495253-3234-4303-955f-50574d5f4744,rev?*%
%TF.SameCoordinates,Original*%
%TF.FileFunction,Copper,L2,Bot*%
%TF.FilePolarity,Positive*%
%FSLAX46Y46*%
G04 Gerber Fmt 4.6, Leading zero omitted, Abs format (unit mm)*
G04 Created by KiCad (PCBNEW (6.0.8)) date 2024-10-31 17:47:46*
%MOMM*%
%LPD*%
G01*
G04 APERTURE LIST*
G04 Aperture macros list*
%AMRoundRect*
0 Rectangle with rounded corners*
0 $1 Rounding radius*
0 $2 $3 $4 $5 $6 $7 $8 $9 X,Y pos of 4 corners*
0 Add a 4 corners polygon primitive as box body*
4,1,4,$2,$3,$4,$5,$6,$7,$8,$9,$2,$3,0*
0 Add four circle primitives for the rounded corners*
1,1,$1+$1,$2,$3*
1,1,$1+$1,$4,$5*
1,1,$1+$1,$6,$7*
1,1,$1+$1,$8,$9*
0 Add four rect primitives between the rounded corners*
20,1,$1+$1,$2,$3,$4,$5,0*
20,1,$1+$1,$4,$5,$6,$7,0*
20,1,$1+$1,$6,$7,$8,$9,0*
20,1,$1+$1,$8,$9,$2,$3,0*%
G04 Aperture macros list end*
%TA.AperFunction,ComponentPad*%
%ADD10R,1.700000X1.700000*%
%TD*%
%TA.AperFunction,ComponentPad*%
%ADD11O,1.700000X1.700000*%
%TD*%
%TA.AperFunction,ComponentPad*%
%ADD12C,1.600000*%
%TD*%
%TA.AperFunction,ComponentPad*%
%ADD13O,1.600000X1.600000*%
%TD*%
%TA.AperFunction,ComponentPad*%
%ADD14R,1.905000X2.000000*%
%TD*%
%TA.AperFunction,ComponentPad*%
%ADD15O,1.905000X2.000000*%
%TD*%
%TA.AperFunction,ComponentPad*%
%ADD16R,1.800000X1.800000*%
%TD*%
%TA.AperFunction,ComponentPad*%
%ADD17O,1.800000X1.800000*%
%TD*%
%TA.AperFunction,ComponentPad*%
%ADD18R,2.000000X1.905000*%
%TD*%
%TA.AperFunction,ComponentPad*%
%ADD19O,2.000000X1.905000*%
%TD*%
%TA.AperFunction,ComponentPad*%
%ADD20RoundRect,0.250000X-0.725000X0.600000X-0.725000X-0.600000X0.725000X-0.600000X0.725000X0.600000X0*%
%TD*%
%TA.AperFunction,ComponentPad*%
%ADD21O,1.950000X1.700000*%
%TD*%
%TA.AperFunction,ComponentPad*%
%ADD22C,2.000000*%
%TD*%
%TA.AperFunction,ComponentPad*%
%ADD23R,1.600000X1.600000*%
%TD*%
%TA.AperFunction,ComponentPad*%
%ADD24RoundRect,0.250000X-0.750000X0.600000X-0.750000X-0.600000X0.750000X-0.600000X0.750000X0.600000X0*%
%TD*%
%TA.AperFunction,ComponentPad*%
%ADD25O,2.000000X1.700000*%
%TD*%
%TA.AperFunction,ComponentPad*%
%ADD26R,1.450000X1.450000*%
%TD*%
%TA.AperFunction,ComponentPad*%
%ADD27C,1.450000*%
%TD*%
%TA.AperFunction,ComponentPad*%
%ADD28R,2.400000X1.600000*%
%TD*%
%TA.AperFunction,ComponentPad*%
%ADD29O,2.400000X1.600000*%
%TD*%
%TA.AperFunction,ComponentPad*%
%ADD30RoundRect,1.500000X1.500000X-1.500000X1.500000X1.500000X-1.500000X1.500000X-1.500000X-1.500000X0*%
%TD*%
%TA.AperFunction,ComponentPad*%
%ADD31C,6.000000*%
%TD*%
%TA.AperFunction,ViaPad*%
%ADD32C,5.200000*%
%TD*%
%TA.AperFunction,Conductor*%
%ADD33C,0.250000*%
%TD*%
%TA.AperFunction,Conductor*%
%ADD34C,1.000000*%
%TD*%
%TA.AperFunction,Conductor*%
%ADD35C,0.500000*%
%TD*%
G04 APERTURE END LIST*
D10*
%TO.P,J5,1,Pin_1*%
%TO.N,Net-(J5-Pad1)*%
X157480000Y-73660000D03*
D11*
%TO.P,J5,2,Pin_2*%
%TO.N,Net-(J5-Pad2)*%
X157480000Y-76200000D03*
%TO.P,J5,3,Pin_3*%
%TO.N,Net-(J5-Pad3)*%
X157480000Y-78740000D03*
%TO.P,J5,4,Pin_4*%
%TO.N,Net-(J5-Pad4)*%
X157480000Y-81280000D03*
%TO.P,J5,5,Pin_5*%
%TO.N,Net-(J5-Pad5)*%
X157480000Y-83820000D03*
%TO.P,J5,6,Pin_6*%
%TO.N,Net-(J5-Pad6)*%
X157480000Y-86360000D03*
%TO.P,J5,7,Pin_7*%
%TO.N,Net-(J5-Pad7)*%
X157480000Y-88900000D03*
%TO.P,J5,8,Pin_8*%
%TO.N,CNV_PWM*%
X157480000Y-91440000D03*
%TO.P,J5,9,Pin_9*%
%TO.N,Net-(C3-Pad1)*%
X157480000Y-93980000D03*
%TO.P,J5,10,Pin_10*%
%TO.N,GND*%
X157480000Y-96520000D03*
%TO.P,J5,11,Pin_11*%
%TO.N,Net-(J5-Pad11)*%
X157480000Y-99060000D03*
%TO.P,J5,12,Pin_12*%
%TO.N,Net-(J5-Pad12)*%
X157480000Y-101600000D03*
%TO.P,J5,13,Pin_13*%
%TO.N,SDO*%
X157480000Y-104140000D03*
%TO.P,J5,14,Pin_14*%
%TO.N,SDA*%
X157480000Y-106680000D03*
%TD*%
D12*
%TO.P,C3,1*%
%TO.N,Net-(C3-Pad1)*%
X142240000Y-58420000D03*
%TO.P,C3,2*%
%TO.N,GND*%
X142240000Y-63420000D03*
%TD*%
%TO.P,R1,1*%
%TO.N,+BATT*%
X116840000Y-76200000D03*
D13*
%TO.P,R1,2*%
%TO.N,Net-(R1-Pad2)*%
X129540000Y-76200000D03*
%TD*%
D14*
%TO.P,U1,1,IN*%
%TO.N,+BATT*%
X116920000Y-58420000D03*
D15*
%TO.P,U1,2,GND*%
%TO.N,GND*%
X119460000Y-58420000D03*
%TO.P,U1,3,OUT*%
%TO.N,Net-(C2-Pad1)*%
X122000000Y-58420000D03*
%TD*%
D10*
%TO.P,J6,1,Pin_1*%
%TO.N,Net-(J6-Pad1)*%
X139700000Y-73660000D03*
D11*
%TO.P,J6,2,Pin_2*%
%TO.N,BATTVD*%
X139700000Y-76200000D03*
%TO.P,J6,3,Pin_3*%
%TO.N,OVD*%
X139700000Y-78740000D03*
%TO.P,J6,4,Pin_4*%
%TO.N,Net-(J6-Pad4)*%
X139700000Y-81280000D03*
%TO.P,J6,5,Pin_5*%
%TO.N,Net-(J6-Pad5)*%
X139700000Y-83820000D03*
%TO.P,J6,6,Pin_6*%
%TO.N,Net-(J6-Pad6)*%
X139700000Y-86360000D03*
%TO.P,J6,7,Pin_7*%
%TO.N,SS*%
X139700000Y-88900000D03*
%TO.P,J6,8,Pin_8*%
%TO.N,GND*%
X139700000Y-91440000D03*
%TO.P,J6,9,Pin_9*%
%TO.N,Net-(J6-Pad9)*%
X139700000Y-93980000D03*
%TO.P,J6,10,Pin_10*%
%TO.N,Net-(J6-Pad10)*%
X139700000Y-96520000D03*
%TO.P,J6,11,Pin_11*%
%TO.N,Net-(J6-Pad11)*%
X139700000Y-99060000D03*
%TO.P,J6,12,Pin_12*%
%TO.N,Net-(J6-Pad12)*%
X139700000Y-101600000D03*
%TO.P,J6,13,Pin_13*%
%TO.N,Net-(J6-Pad13)*%
X139700000Y-104140000D03*
%TO.P,J6,14,Pin_14*%
%TO.N,SCK*%
X139700000Y-106680000D03*
%TD*%
D12*
%TO.P,R5,1*%
%TO.N,Net-(J2-Pad1)*%
X199390000Y-60960000D03*
D13*
%TO.P,R5,2*%
%TO.N,Net-(D2-Pad1)*%
X186690000Y-60960000D03*
%TD*%
D16*
%TO.P,D1,1,K*%
%TO.N,Net-(C3-Pad1)*%
X137160000Y-58420000D03*
D17*
%TO.P,D1,2,A*%
%TO.N,Net-(C2-Pad1)*%
X127000000Y-58420000D03*
%TD*%
D18*
%TO.P,Q1,1,B*%
%TO.N,Net-(Q1-Pad1)*%
X180015000Y-78740000D03*
D19*
%TO.P,Q1,2,C*%
%TO.N,Net-(C5-Pad1)*%
X180015000Y-76200000D03*
%TO.P,Q1,3,E*%
%TO.N,Net-(D2-Pad1)*%
X180015000Y-73660000D03*
%TD*%
D20*
%TO.P,J8,1,Pin_1*%
%TO.N,GND*%
X204995000Y-75010000D03*
D21*
%TO.P,J8,2,Pin_2*%
%TO.N,SDO*%
X204995000Y-77510000D03*
%TO.P,J8,3,Pin_3*%
%TO.N,SDA*%
X204995000Y-80010000D03*
%TO.P,J8,4,Pin_4*%
%TO.N,SCK*%
X204995000Y-82510000D03*
%TO.P,J8,5,Pin_5*%
%TO.N,SS*%
X204995000Y-85010000D03*
%TD*%
D12*
%TO.P,R2,1*%
%TO.N,Net-(R1-Pad2)*%
X129540000Y-81280000D03*
D13*
%TO.P,R2,2*%
%TO.N,Net-(R2-Pad2)*%
X116840000Y-81280000D03*
%TD*%
D22*
%TO.P,C1,1*%
%TO.N,+BATT*%
X108030000Y-69850000D03*
%TO.P,C1,2*%
%TO.N,GND*%
X118030000Y-69850000D03*
%TD*%
D12*
%TO.P,R3,1*%
%TO.N,Net-(R2-Pad2)*%
X116840000Y-86360000D03*
D13*
%TO.P,R3,2*%
%TO.N,BATTVD*%
X129540000Y-86360000D03*
%TD*%
D12*
%TO.P,C2,1*%
%TO.N,Net-(C2-Pad1)*%
X122000000Y-64810000D03*
%TO.P,C2,2*%
%TO.N,GND*%
X122000000Y-69810000D03*
%TD*%
D23*
%TO.P,U4,1,NC*%
%TO.N,unconnected-(U4-Pad1)*%
X172720000Y-88900000D03*
D13*
%TO.P,U4,2,A*%
%TO.N,Net-(R7-Pad2)*%
X172720000Y-91440000D03*
%TO.P,U4,3,C*%
%TO.N,GND*%
X172720000Y-93980000D03*
%TO.P,U4,4,NC*%
%TO.N,unconnected-(U4-Pad4)*%
X172720000Y-96520000D03*
%TO.P,U4,5,VEE*%
%TO.N,Net-(C5-Pad2)*%
X180340000Y-96520000D03*
%TO.P,U4,6,VO*%
%TO.N,Net-(Q1-Pad1)*%
X180340000Y-93980000D03*
%TO.P,U4,7,VO*%
X180340000Y-91440000D03*
%TO.P,U4,8,VCC*%
%TO.N,Net-(C5-Pad1)*%
X180340000Y-88900000D03*
%TD*%
D12*
%TO.P,R4,1*%
%TO.N,BATTVD*%
X129540000Y-91440000D03*
D13*
%TO.P,R4,2*%
%TO.N,GND*%
X116840000Y-91440000D03*
%TD*%
D12*
%TO.P,C5,1*%
%TO.N,Net-(C5-Pad1)*%
X185420000Y-90210000D03*
%TO.P,C5,2*%
%TO.N,Net-(C5-Pad2)*%
X185420000Y-95210000D03*
%TD*%
%TO.P,C4,1*%
%TO.N,GND*%
X144820000Y-67310000D03*
%TO.P,C4,2*%
%TO.N,Net-(C3-Pad1)*%
X149820000Y-67310000D03*
%TD*%
D24*
%TO.P,J2,1,FET_G*%
%TO.N,Net-(J2-Pad1)*%
X217170000Y-60960000D03*
D25*
%TO.P,J2,2,FET_S*%
%TO.N,Net-(C5-Pad2)*%
X217170000Y-63460000D03*
%TD*%
D24*
%TO.P,J4,1,FET_G*%
%TO.N,GND*%
X215900000Y-96520000D03*
D25*
%TO.P,J4,2,FET_S*%
%TO.N,OVD*%
X215900000Y-99020000D03*
%TD*%
D12*
%TO.P,R6,1*%
%TO.N,Net-(J2-Pad1)*%
X199390000Y-66040000D03*
D13*
%TO.P,R6,2*%
%TO.N,Net-(D2-Pad2)*%
X186690000Y-66040000D03*
%TD*%
D20*
%TO.P,J7,1,Pin_1*%
%TO.N,GND*%
X216405000Y-77450000D03*
D21*
%TO.P,J7,2,Pin_2*%
%TO.N,SDA*%
X216405000Y-79950000D03*
%TO.P,J7,3,Pin_3*%
%TO.N,SCK*%
X216405000Y-82450000D03*
%TD*%
D26*
%TO.P,U3,1,Vin-*%
%TO.N,GND*%
X154940000Y-58420000D03*
D27*
%TO.P,U3,2,Vin+*%
%TO.N,Net-(C3-Pad1)*%
X157480000Y-58420000D03*
%TO.P,U3,3,ON/OFF*%
%TO.N,Net-(U3-Pad3)*%
X160020000Y-58420000D03*
%TO.P,U3,4,NC*%
X162560000Y-58420000D03*
%TO.P,U3,5,NC*%
X165100000Y-58420000D03*
%TO.P,U3,6,Vo+*%
%TO.N,Net-(C5-Pad1)*%
X167640000Y-58420000D03*
%TO.P,U3,7,Vi-*%
%TO.N,Net-(C5-Pad2)*%
X170180000Y-58420000D03*
%TO.P,U3,8,NC*%
%TO.N,Net-(U3-Pad3)*%
X172720000Y-58420000D03*
%TD*%
D28*
%TO.P,U2,1,RE3/~{MCLR}/VPP*%
%TO.N,Net-(J6-Pad1)*%
X144780000Y-73660000D03*
D29*
%TO.P,U2,2,RA0*%
%TO.N,BATTVD*%
X144780000Y-76200000D03*
%TO.P,U2,3,RA1*%
%TO.N,OVD*%
X144780000Y-78740000D03*
%TO.P,U2,4,RA2*%
%TO.N,Net-(J6-Pad4)*%
X144780000Y-81280000D03*
%TO.P,U2,5,RA3*%
%TO.N,Net-(J6-Pad5)*%
X144780000Y-83820000D03*
%TO.P,U2,6,RA4*%
%TO.N,Net-(J6-Pad6)*%
X144780000Y-86360000D03*
%TO.P,U2,7,RA5*%
%TO.N,SS*%
X144780000Y-88900000D03*
%TO.P,U2,8,VSS*%
%TO.N,GND*%
X144780000Y-91440000D03*
%TO.P,U2,9,RA7*%
%TO.N,Net-(J6-Pad9)*%
X144780000Y-93980000D03*
%TO.P,U2,10,RA6*%
%TO.N,Net-(J6-Pad10)*%
X144780000Y-96520000D03*
%TO.P,U2,11,RC0*%
%TO.N,Net-(J6-Pad11)*%
X144780000Y-99060000D03*
%TO.P,U2,12,RC1*%
%TO.N,Net-(J6-Pad12)*%
X144780000Y-101600000D03*
%TO.P,U2,13,RC2*%
%TO.N,Net-(J6-Pad13)*%
X144780000Y-104140000D03*
%TO.P,U2,14,RC3*%
%TO.N,SCK*%
X144780000Y-106680000D03*
%TO.P,U2,15,RC4*%
%TO.N,SDA*%
X152400000Y-106680000D03*
%TO.P,U2,16,RC5*%
%TO.N,SDO*%
X152400000Y-104140000D03*
%TO.P,U2,17,RC6*%
%TO.N,Net-(J5-Pad12)*%
X152400000Y-101600000D03*
%TO.P,U2,18,RC7*%
%TO.N,Net-(J5-Pad11)*%
X152400000Y-99060000D03*
%TO.P,U2,19,VSS*%
%TO.N,GND*%
X152400000Y-96520000D03*
%TO.P,U2,20,VDD*%
%TO.N,Net-(C3-Pad1)*%
X152400000Y-93980000D03*
%TO.P,U2,21,RB0*%
%TO.N,CNV_PWM*%
X152400000Y-91440000D03*
%TO.P,U2,22,RB1*%
%TO.N,Net-(J5-Pad7)*%
X152400000Y-88900000D03*
%TO.P,U2,23,RB2*%
%TO.N,Net-(J5-Pad6)*%
X152400000Y-86360000D03*
%TO.P,U2,24,RB3*%
%TO.N,Net-(J5-Pad5)*%
X152400000Y-83820000D03*
%TO.P,U2,25,RB4*%
%TO.N,Net-(J5-Pad4)*%
X152400000Y-81280000D03*
%TO.P,U2,26,RB5*%
%TO.N,Net-(J5-Pad3)*%
X152400000Y-78740000D03*
%TO.P,U2,27,ICSPCLK/RB6*%
%TO.N,Net-(J5-Pad2)*%
X152400000Y-76200000D03*
%TO.P,U2,28,ICSPDAT/RB7*%
%TO.N,Net-(J5-Pad1)*%
X152400000Y-73660000D03*
%TD*%
D12*
%TO.P,R7,1*%
%TO.N,CNV_PWM*%
X165100000Y-91440000D03*
D13*
%TO.P,R7,2*%
%TO.N,Net-(R7-Pad2)*%
X165100000Y-78740000D03*
%TD*%
D18*
%TO.P,Q2,1,B*%
%TO.N,Net-(Q1-Pad1)*%
X187960000Y-78740000D03*
D19*
%TO.P,Q2,2,C*%
%TO.N,Net-(C5-Pad2)*%
X187960000Y-76200000D03*
%TO.P,Q2,3,E*%
%TO.N,Net-(D2-Pad1)*%
X187960000Y-73660000D03*
%TD*%
D30*
%TO.P,J1,1,Pin_2*%
%TO.N,GND*%
X108030000Y-89960000D03*
D31*
%TO.P,J1,2,Pin_1*%
%TO.N,+BATT*%
X108030000Y-82760000D03*
%TD*%
D23*
%TO.P,D2,1,K*%
%TO.N,Net-(D2-Pad1)*%
X182880000Y-60960000D03*
D13*
%TO.P,D2,2,A*%
%TO.N,Net-(D2-Pad2)*%
X182880000Y-68580000D03*
%TD*%
D32*
%TO.N,*%
X218440000Y-50800000D03*
X106680000Y-109220000D03*
X106680000Y-50800000D03*
X218440000Y-109220000D03*
%TD*%
D33*
%TO.N,Net-(C2-Pad1)*%
X122000000Y-58420000D02*
X122000000Y-64810000D01*
D34*
X122000000Y-58420000D02*
X127000000Y-58420000D01*
D35*
%TO.N,Net-(C3-Pad1)*%
X157480000Y-63500000D02*
X157480000Y-58420000D01*
X167640000Y-92710000D02*
X167640000Y-87630000D01*
X167640000Y-87630000D02*
X161290000Y-81280000D01*
X157480000Y-93980000D02*
X166370000Y-93980000D01*
D34*
X144780000Y-55880000D02*
X156210000Y-55880000D01*
X157480000Y-57150000D02*
X157480000Y-58420000D01*
X137160000Y-58420000D02*
X142240000Y-58420000D01*
X142240000Y-58420000D02*
X144780000Y-55880000D01*
D35*
X161290000Y-81280000D02*
X161290000Y-67310000D01*
X166370000Y-93980000D02*
X167640000Y-92710000D01*
X161290000Y-67310000D02*
X157480000Y-63500000D01*
D34*
X156210000Y-55880000D02*
X157480000Y-57150000D01*
D35*
X157480000Y-63500000D02*
X153670000Y-67310000D01*
X153670000Y-67310000D02*
X149820000Y-67310000D01*
X152400000Y-93980000D02*
X157480000Y-93980000D01*
D34*
%TO.N,Net-(C5-Pad1)*%
X173990000Y-82550000D02*
X179070000Y-82550000D01*
X180015000Y-76200000D02*
X176530000Y-76200000D01*
X167640000Y-58420000D02*
X167640000Y-55880000D01*
X175260000Y-53340000D02*
X177800000Y-55880000D01*
X170180000Y-53340000D02*
X175260000Y-53340000D01*
X180340000Y-83820000D02*
X180340000Y-88900000D01*
D35*
X180340000Y-88900000D02*
X184110000Y-88900000D01*
D33*
X172720000Y-72390000D02*
X172720000Y-66040000D01*
X176530000Y-62230000D02*
X172720000Y-66040000D01*
D34*
X177800000Y-55880000D02*
X177800000Y-60960000D01*
X176530000Y-76200000D02*
X172720000Y-72390000D01*
D35*
X184110000Y-88900000D02*
X185420000Y-90210000D01*
D34*
X172720000Y-66040000D02*
X172720000Y-81280000D01*
X172720000Y-81280000D02*
X173990000Y-82550000D01*
X179070000Y-82550000D02*
X180340000Y-83820000D01*
X177800000Y-60960000D02*
X172720000Y-66040000D01*
X167640000Y-55880000D02*
X170180000Y-53340000D01*
%TO.N,Net-(D2-Pad1)*%
X182880000Y-60960000D02*
X186690000Y-60960000D01*
X180015000Y-63825000D02*
X182880000Y-60960000D01*
X180015000Y-73660000D02*
X180015000Y-63825000D01*
D35*
X180015000Y-73660000D02*
X187960000Y-73660000D01*
D33*
X182555000Y-60635000D02*
X182880000Y-60960000D01*
D34*
%TO.N,Net-(D2-Pad2)*%
X184150000Y-68580000D02*
X186690000Y-66040000D01*
X182880000Y-68580000D02*
X184150000Y-68580000D01*
D35*
%TO.N,BATTVD*%
X129540000Y-86360000D02*
X132080000Y-83820000D01*
X132080000Y-83820000D02*
X132080000Y-77470000D01*
X132080000Y-77470000D02*
X133350000Y-76200000D01*
X129540000Y-86360000D02*
X129540000Y-91440000D01*
X133350000Y-76200000D02*
X139700000Y-76200000D01*
X139700000Y-76200000D02*
X144780000Y-76200000D01*
%TO.N,CNV_PWM*%
X165100000Y-91440000D02*
X157480000Y-91440000D01*
X152400000Y-91440000D02*
X157480000Y-91440000D01*
%TO.N,OVD*%
X139700000Y-78740000D02*
X144780000Y-78740000D01*
X201930000Y-100330000D02*
X203240000Y-99020000D01*
X200660000Y-105410000D02*
X201930000Y-104140000D01*
X134620000Y-80010000D02*
X134620000Y-111760000D01*
X135890000Y-78740000D02*
X134620000Y-80010000D01*
X201930000Y-104140000D02*
X201930000Y-100330000D01*
X139700000Y-78740000D02*
X135890000Y-78740000D01*
X135890000Y-113030000D02*
X161290000Y-113030000D01*
X168910000Y-105410000D02*
X200660000Y-105410000D01*
X134620000Y-111760000D02*
X135890000Y-113030000D01*
X203240000Y-99020000D02*
X215900000Y-99020000D01*
X161290000Y-113030000D02*
X168910000Y-105410000D01*
%TO.N,Net-(J5-Pad1)*%
X152400000Y-73660000D02*
X157480000Y-73660000D01*
D34*
%TO.N,Net-(C5-Pad2)*%
X170180000Y-66040000D02*
X170180000Y-83820000D01*
X180340000Y-96520000D02*
X184110000Y-96520000D01*
X190500000Y-93980000D02*
X189270000Y-95210000D01*
X175260000Y-85090000D02*
X176530000Y-86360000D01*
X201930000Y-64770000D02*
X203240000Y-63460000D01*
X170180000Y-83820000D02*
X171450000Y-85090000D01*
X176530000Y-95250000D02*
X177800000Y-96520000D01*
X189270000Y-95210000D02*
X185420000Y-95210000D01*
X172720000Y-85090000D02*
X175260000Y-85090000D01*
X190500000Y-76200000D02*
X190500000Y-72390000D01*
X201930000Y-68580000D02*
X201930000Y-64770000D01*
X190500000Y-78740000D02*
X190500000Y-76200000D01*
X175260000Y-57150000D02*
X175260000Y-60960000D01*
X184110000Y-96520000D02*
X185420000Y-95210000D01*
X173990000Y-55880000D02*
X175260000Y-57150000D01*
X190500000Y-78740000D02*
X190500000Y-93980000D01*
X171450000Y-55880000D02*
X173990000Y-55880000D01*
D35*
X187960000Y-76200000D02*
X190500000Y-76200000D01*
D34*
X176530000Y-86360000D02*
X176530000Y-95250000D01*
X193040000Y-69850000D02*
X200660000Y-69850000D01*
X170180000Y-57150000D02*
X171450000Y-55880000D01*
X175260000Y-60960000D02*
X170180000Y-66040000D01*
X177800000Y-96520000D02*
X180340000Y-96520000D01*
X203240000Y-63460000D02*
X217170000Y-63460000D01*
X170180000Y-58420000D02*
X170180000Y-57150000D01*
X200660000Y-69850000D02*
X201930000Y-68580000D01*
X190500000Y-72390000D02*
X193040000Y-69850000D01*
X171450000Y-85090000D02*
X172720000Y-85090000D01*
%TO.N,Net-(J2-Pad1)*%
X199390000Y-60960000D02*
X199390000Y-66040000D01*
X199390000Y-60960000D02*
X217170000Y-60960000D01*
%TO.N,+BATT*%
X108030000Y-69850000D02*
X108030000Y-59610000D01*
X109220000Y-58420000D02*
X116920000Y-58420000D01*
X108030000Y-75010000D02*
X108030000Y-82760000D01*
D35*
X109220000Y-76200000D02*
X108030000Y-75010000D01*
D34*
X108030000Y-69850000D02*
X108030000Y-75010000D01*
X108030000Y-59610000D02*
X109220000Y-58420000D01*
D35*
X116840000Y-76200000D02*
X109220000Y-76200000D01*
D34*
%TO.N,GND*%
X124460000Y-68580000D02*
X123230000Y-69810000D01*
D35*
X204995000Y-75010000D02*
X213965000Y-75010000D01*
D34*
X122000000Y-69810000D02*
X122000000Y-90090000D01*
X149940000Y-63420000D02*
X154940000Y-58420000D01*
D35*
X220960000Y-78760000D02*
X219650000Y-77450000D01*
D34*
X125810000Y-63420000D02*
X124460000Y-64770000D01*
D35*
X194310000Y-99060000D02*
X195580000Y-97790000D01*
D34*
X142240000Y-63420000D02*
X149940000Y-63420000D01*
D35*
X148590000Y-93980000D02*
X151130000Y-96520000D01*
D33*
X109510000Y-91440000D02*
X108030000Y-89960000D01*
D35*
X204995000Y-75010000D02*
X196770000Y-75010000D01*
X196770000Y-75010000D02*
X195580000Y-76200000D01*
D34*
X142240000Y-64730000D02*
X144820000Y-67310000D01*
D35*
X148590000Y-93980000D02*
X148590000Y-71080000D01*
D33*
X118030000Y-69850000D02*
X121960000Y-69850000D01*
D35*
X215900000Y-96520000D02*
X219710000Y-96520000D01*
X219650000Y-77450000D02*
X216405000Y-77450000D01*
D34*
X142240000Y-63420000D02*
X125810000Y-63420000D01*
D33*
X151130000Y-96520000D02*
X152400000Y-96520000D01*
X121960000Y-69850000D02*
X122000000Y-69810000D01*
D35*
X168910000Y-99060000D02*
X194310000Y-99060000D01*
X166370000Y-96520000D02*
X168910000Y-99060000D01*
X220980000Y-95250000D02*
X220980000Y-78740000D01*
X195580000Y-76200000D02*
X195580000Y-97790000D01*
X219710000Y-96520000D02*
X220980000Y-95250000D01*
D34*
X122000000Y-90090000D02*
X120650000Y-91440000D01*
D35*
X139700000Y-91440000D02*
X144780000Y-91440000D01*
X152400000Y-96520000D02*
X157480000Y-96520000D01*
X213965000Y-75010000D02*
X216405000Y-77450000D01*
X157480000Y-96520000D02*
X166370000Y-96520000D01*
D34*
X120650000Y-91440000D02*
X116840000Y-91440000D01*
X116840000Y-91440000D02*
X109510000Y-91440000D01*
D33*
X119460000Y-68420000D02*
X118030000Y-69850000D01*
D35*
X166370000Y-96520000D02*
X168910000Y-93980000D01*
X168910000Y-93980000D02*
X172720000Y-93980000D01*
D33*
X119460000Y-58420000D02*
X119460000Y-68420000D01*
D35*
X148590000Y-71080000D02*
X144820000Y-67310000D01*
D33*
X144780000Y-91440000D02*
X146050000Y-91440000D01*
D35*
X146050000Y-91440000D02*
X148590000Y-93980000D01*
D34*
X124460000Y-64770000D02*
X124460000Y-68580000D01*
X142240000Y-63420000D02*
X142240000Y-64730000D01*
X123230000Y-69810000D02*
X122000000Y-69810000D01*
D35*
%TO.N,Net-(R1-Pad2)*%
X129540000Y-76200000D02*
X129540000Y-81280000D01*
%TO.N,Net-(R2-Pad2)*%
X116840000Y-81280000D02*
X116840000Y-86150000D01*
D33*
X117050000Y-86360000D02*
X116840000Y-86360000D01*
X116840000Y-86150000D02*
X117050000Y-86360000D01*
D35*
%TO.N,Net-(R7-Pad2)*%
X168910000Y-87630000D02*
X172720000Y-91440000D01*
X165100000Y-78740000D02*
X167640000Y-78740000D01*
X168910000Y-80010000D02*
X168910000Y-87630000D01*
X167640000Y-78740000D02*
X168910000Y-80010000D01*
%TO.N,Net-(J5-Pad2)*%
X152400000Y-76200000D02*
X157480000Y-76200000D01*
%TO.N,Net-(J5-Pad3)*%
X152400000Y-78740000D02*
X157480000Y-78740000D01*
%TO.N,Net-(J5-Pad4)*%
X152400000Y-81280000D02*
X157480000Y-81280000D01*
%TO.N,Net-(J5-Pad5)*%
X152400000Y-83820000D02*
X157480000Y-83820000D01*
%TO.N,Net-(J5-Pad6)*%
X152400000Y-86360000D02*
X157480000Y-86360000D01*
%TO.N,Net-(J5-Pad7)*%
X152400000Y-88900000D02*
X157480000Y-88900000D01*
%TO.N,Net-(J5-Pad11)*%
X152400000Y-99060000D02*
X157480000Y-99060000D01*
%TO.N,Net-(J5-Pad12)*%
X152400000Y-101600000D02*
X157480000Y-101600000D01*
%TO.N,Net-(J6-Pad1)*%
X139700000Y-73660000D02*
X144780000Y-73660000D01*
%TO.N,Net-(J6-Pad4)*%
X139700000Y-81280000D02*
X144780000Y-81280000D01*
%TO.N,Net-(J6-Pad5)*%
X139700000Y-83820000D02*
X144780000Y-83820000D01*
%TO.N,Net-(J6-Pad6)*%
X139700000Y-86360000D02*
X144780000Y-86360000D01*
%TO.N,Net-(J6-Pad9)*%
X139700000Y-93980000D02*
X144780000Y-93980000D01*
%TO.N,Net-(J6-Pad10)*%
X139700000Y-96520000D02*
X144780000Y-96520000D01*
%TO.N,Net-(J6-Pad11)*%
X139700000Y-99060000D02*
X144780000Y-99060000D01*
%TO.N,Net-(J6-Pad12)*%
X139700000Y-101600000D02*
X144780000Y-101600000D01*
%TO.N,Net-(J6-Pad13)*%
X139700000Y-104140000D02*
X144780000Y-104140000D01*
%TO.N,SCK*%
X139700000Y-109220000D02*
X140970000Y-110490000D01*
X204995000Y-82510000D02*
X216345000Y-82510000D01*
X199390000Y-101600000D02*
X199390000Y-83820000D01*
X166370000Y-102870000D02*
X198120000Y-102870000D01*
X140970000Y-110490000D02*
X158750000Y-110490000D01*
X158750000Y-110490000D02*
X166370000Y-102870000D01*
X139700000Y-106680000D02*
X144780000Y-106680000D01*
X200700000Y-82510000D02*
X204995000Y-82510000D01*
D33*
X216345000Y-82510000D02*
X216405000Y-82450000D01*
D35*
X139700000Y-106680000D02*
X139700000Y-109220000D01*
X199390000Y-83820000D02*
X200700000Y-82510000D01*
X198120000Y-102870000D02*
X199390000Y-101600000D01*
%TO.N,SDO*%
X196850000Y-99060000D02*
X195580000Y-100330000D01*
D33*
X157480000Y-104140000D02*
X158750000Y-104140000D01*
D35*
X198080000Y-77510000D02*
X196850000Y-78740000D01*
X196850000Y-78740000D02*
X196850000Y-99060000D01*
X152400000Y-104140000D02*
X157480000Y-104140000D01*
X158750000Y-104140000D02*
X162560000Y-100330000D01*
X204995000Y-77510000D02*
X198080000Y-77510000D01*
X162560000Y-100330000D02*
X195580000Y-100330000D01*
%TO.N,SDA*%
X204995000Y-80010000D02*
X199390000Y-80010000D01*
X152400000Y-106680000D02*
X157480000Y-106680000D01*
D33*
X205055000Y-79950000D02*
X204995000Y-80010000D01*
D35*
X216405000Y-79950000D02*
X205055000Y-79950000D01*
X158750000Y-106680000D02*
X163830000Y-101600000D01*
X199390000Y-80010000D02*
X198120000Y-81280000D01*
X198120000Y-100330000D02*
X196850000Y-101600000D01*
D33*
X157480000Y-106680000D02*
X158750000Y-106680000D01*
D35*
X198120000Y-81280000D02*
X198120000Y-100330000D01*
X163830000Y-101600000D02*
X196850000Y-101600000D01*
%TO.N,SS*%
X137160000Y-88900000D02*
X139700000Y-88900000D01*
X160020000Y-111760000D02*
X167640000Y-104140000D01*
X199390000Y-104140000D02*
X200660000Y-102870000D01*
X202010000Y-85010000D02*
X200660000Y-86360000D01*
X135890000Y-110490000D02*
X135890000Y-90170000D01*
X200660000Y-86360000D02*
X200660000Y-102870000D01*
X137160000Y-111760000D02*
X160020000Y-111760000D01*
X167640000Y-104140000D02*
X199390000Y-104140000D01*
X204995000Y-85010000D02*
X202010000Y-85010000D01*
X135890000Y-110490000D02*
X137160000Y-111760000D01*
X135890000Y-90170000D02*
X137160000Y-88900000D01*
X139700000Y-88900000D02*
X144780000Y-88900000D01*
%TO.N,Net-(Q1-Pad1)*%
X187960000Y-78740000D02*
X180015000Y-78740000D01*
X187960000Y-92710000D02*
X187960000Y-78740000D01*
X180340000Y-91440000D02*
X180340000Y-92710000D01*
X180340000Y-92710000D02*
X180340000Y-93980000D01*
X180340000Y-92710000D02*
X187960000Y-92710000D01*
%TO.N,Net-(U3-Pad3)*%
X170180000Y-60960000D02*
X167640000Y-60960000D01*
X167640000Y-60960000D02*
X165100000Y-58420000D01*
X172720000Y-58420000D02*
X170180000Y-60960000D01*
X162560000Y-58420000D02*
X160020000Y-58420000D01*
X162560000Y-58420000D02*
X165100000Y-58420000D01*
%TD*%
M02*
