%TF.GenerationSoftware,KiCad,Pcbnew,(6.0.8)*%
%TF.CreationDate,2024-10-31T17:47:46+09:00*%
%TF.ProjectId,MIRS2405_PWM_GD,4d495253-3234-4303-955f-50574d5f4744,rev?*%
%TF.SameCoordinates,Original*%
%TF.FileFunction,Soldermask,Bot*%
%TF.FilePolarity,Negative*%
%FSLAX46Y46*%
G04 Gerber Fmt 4.6, Leading zero omitted, Abs format (unit mm)*
G04 Created by KiCad (PCBNEW (6.0.8)) date 2024-10-31 17:47:46*
%MOMM*%
%LPD*%
G01*
G04 APERTURE LIST*
G04 Aperture macros list*
%AMRoundRect*
0 Rectangle with rounded corners*
0 $1 Rounding radius*
0 $2 $3 $4 $5 $6 $7 $8 $9 X,Y pos of 4 corners*
0 Add a 4 corners polygon primitive as box body*
4,1,4,$2,$3,$4,$5,$6,$7,$8,$9,$2,$3,0*
0 Add four circle primitives for the rounded corners*
1,1,$1+$1,$2,$3*
1,1,$1+$1,$4,$5*
1,1,$1+$1,$6,$7*
1,1,$1+$1,$8,$9*
0 Add four rect primitives between the rounded corners*
20,1,$1+$1,$2,$3,$4,$5,0*
20,1,$1+$1,$4,$5,$6,$7,0*
20,1,$1+$1,$6,$7,$8,$9,0*
20,1,$1+$1,$8,$9,$2,$3,0*%
G04 Aperture macros list end*
%ADD10R,1.700000X1.700000*%
%ADD11O,1.700000X1.700000*%
%ADD12C,1.600000*%
%ADD13O,1.600000X1.600000*%
%ADD14R,1.905000X2.000000*%
%ADD15O,1.905000X2.000000*%
%ADD16R,1.800000X1.800000*%
%ADD17O,1.800000X1.800000*%
%ADD18R,2.000000X1.905000*%
%ADD19O,2.000000X1.905000*%
%ADD20RoundRect,0.250000X-0.725000X0.600000X-0.725000X-0.600000X0.725000X-0.600000X0.725000X0.600000X0*%
%ADD21O,1.950000X1.700000*%
%ADD22C,2.000000*%
%ADD23R,1.600000X1.600000*%
%ADD24RoundRect,0.250000X-0.750000X0.600000X-0.750000X-0.600000X0.750000X-0.600000X0.750000X0.600000X0*%
%ADD25O,2.000000X1.700000*%
%ADD26R,1.450000X1.450000*%
%ADD27C,1.450000*%
%ADD28R,2.400000X1.600000*%
%ADD29O,2.400000X1.600000*%
%ADD30RoundRect,1.500000X1.500000X-1.500000X1.500000X1.500000X-1.500000X1.500000X-1.500000X-1.500000X0*%
%ADD31C,6.000000*%
G04 APERTURE END LIST*
D10*
%TO.C,J5*%
X157480000Y-73660000D03*
D11*
X157480000Y-76200000D03*
X157480000Y-78740000D03*
X157480000Y-81280000D03*
X157480000Y-83820000D03*
X157480000Y-86360000D03*
X157480000Y-88900000D03*
X157480000Y-91440000D03*
X157480000Y-93980000D03*
X157480000Y-96520000D03*
X157480000Y-99060000D03*
X157480000Y-101600000D03*
X157480000Y-104140000D03*
X157480000Y-106680000D03*
%TD*%
D12*
%TO.C,C3*%
X142240000Y-58420000D03*
X142240000Y-63420000D03*
%TD*%
%TO.C,R1*%
X116840000Y-76200000D03*
D13*
X129540000Y-76200000D03*
%TD*%
D14*
%TO.C,U1*%
X116920000Y-58420000D03*
D15*
X119460000Y-58420000D03*
X122000000Y-58420000D03*
%TD*%
D10*
%TO.C,J6*%
X139700000Y-73660000D03*
D11*
X139700000Y-76200000D03*
X139700000Y-78740000D03*
X139700000Y-81280000D03*
X139700000Y-83820000D03*
X139700000Y-86360000D03*
X139700000Y-88900000D03*
X139700000Y-91440000D03*
X139700000Y-93980000D03*
X139700000Y-96520000D03*
X139700000Y-99060000D03*
X139700000Y-101600000D03*
X139700000Y-104140000D03*
X139700000Y-106680000D03*
%TD*%
D12*
%TO.C,R5*%
X199390000Y-60960000D03*
D13*
X186690000Y-60960000D03*
%TD*%
D16*
%TO.C,D1*%
X137160000Y-58420000D03*
D17*
X127000000Y-58420000D03*
%TD*%
D18*
%TO.C,Q1*%
X180015000Y-78740000D03*
D19*
X180015000Y-76200000D03*
X180015000Y-73660000D03*
%TD*%
D20*
%TO.C,J8*%
X204995000Y-75010000D03*
D21*
X204995000Y-77510000D03*
X204995000Y-80010000D03*
X204995000Y-82510000D03*
X204995000Y-85010000D03*
%TD*%
D12*
%TO.C,R2*%
X129540000Y-81280000D03*
D13*
X116840000Y-81280000D03*
%TD*%
D22*
%TO.C,C1*%
X108030000Y-69850000D03*
X118030000Y-69850000D03*
%TD*%
D12*
%TO.C,R3*%
X116840000Y-86360000D03*
D13*
X129540000Y-86360000D03*
%TD*%
D12*
%TO.C,C2*%
X122000000Y-64810000D03*
X122000000Y-69810000D03*
%TD*%
D23*
%TO.C,U4*%
X172720000Y-88900000D03*
D13*
X172720000Y-91440000D03*
X172720000Y-93980000D03*
X172720000Y-96520000D03*
X180340000Y-96520000D03*
X180340000Y-93980000D03*
X180340000Y-91440000D03*
X180340000Y-88900000D03*
%TD*%
D12*
%TO.C,R4*%
X129540000Y-91440000D03*
D13*
X116840000Y-91440000D03*
%TD*%
D12*
%TO.C,C5*%
X185420000Y-90210000D03*
X185420000Y-95210000D03*
%TD*%
%TO.C,C4*%
X144820000Y-67310000D03*
X149820000Y-67310000D03*
%TD*%
D24*
%TO.C,J2*%
X217170000Y-60960000D03*
D25*
X217170000Y-63460000D03*
%TD*%
D24*
%TO.C,J4*%
X215900000Y-96520000D03*
D25*
X215900000Y-99020000D03*
%TD*%
D12*
%TO.C,R6*%
X199390000Y-66040000D03*
D13*
X186690000Y-66040000D03*
%TD*%
D20*
%TO.C,J7*%
X216405000Y-77450000D03*
D21*
X216405000Y-79950000D03*
X216405000Y-82450000D03*
%TD*%
D26*
%TO.C,U3*%
X154940000Y-58420000D03*
D27*
X157480000Y-58420000D03*
X160020000Y-58420000D03*
X162560000Y-58420000D03*
X165100000Y-58420000D03*
X167640000Y-58420000D03*
X170180000Y-58420000D03*
X172720000Y-58420000D03*
%TD*%
D28*
%TO.C,U2*%
X144780000Y-73660000D03*
D29*
X144780000Y-76200000D03*
X144780000Y-78740000D03*
X144780000Y-81280000D03*
X144780000Y-83820000D03*
X144780000Y-86360000D03*
X144780000Y-88900000D03*
X144780000Y-91440000D03*
X144780000Y-93980000D03*
X144780000Y-96520000D03*
X144780000Y-99060000D03*
X144780000Y-101600000D03*
X144780000Y-104140000D03*
X144780000Y-106680000D03*
X152400000Y-106680000D03*
X152400000Y-104140000D03*
X152400000Y-101600000D03*
X152400000Y-99060000D03*
X152400000Y-96520000D03*
X152400000Y-93980000D03*
X152400000Y-91440000D03*
X152400000Y-88900000D03*
X152400000Y-86360000D03*
X152400000Y-83820000D03*
X152400000Y-81280000D03*
X152400000Y-78740000D03*
X152400000Y-76200000D03*
X152400000Y-73660000D03*
%TD*%
D12*
%TO.C,R7*%
X165100000Y-91440000D03*
D13*
X165100000Y-78740000D03*
%TD*%
D18*
%TO.C,Q2*%
X187960000Y-78740000D03*
D19*
X187960000Y-76200000D03*
X187960000Y-73660000D03*
%TD*%
D30*
%TO.C,J1*%
X108030000Y-89960000D03*
D31*
X108030000Y-82760000D03*
%TD*%
D23*
%TO.C,D2*%
X182880000Y-60960000D03*
D13*
X182880000Y-68580000D03*
%TD*%
M02*
