M48
; DRILL file {KiCad (6.0.8)} date Thu Oct 31 17:48:01 2024
; FORMAT={-:-/ absolute / metric / decimal}
; #@! TF.CreationDate,2024-10-31T17:48:01+09:00
; #@! TF.GenerationSoftware,Kicad,Pcbnew,(6.0.8)
; #@! TF.FileFunction,Plated,1,2,PTH
FMAT,2
METRIC
; #@! TA.AperFunction,Plated,PTH,ComponentDrill
T1C0.800
; #@! TA.AperFunction,Plated,PTH,ComponentDrill
T2C0.850
; #@! TA.AperFunction,Plated,PTH,ComponentDrill
T3C0.900
; #@! TA.AperFunction,Plated,PTH,ComponentDrill
T4C0.950
; #@! TA.AperFunction,Plated,PTH,ComponentDrill
T5C1.000
; #@! TA.AperFunction,Plated,PTH,ComponentDrill
T6C1.100
; #@! TA.AperFunction,Plated,PTH,ViaDrill
T7C3.200
; #@! TA.AperFunction,Plated,PTH,ComponentDrill
T8C4.500
%
G90
G05
T1
X116.84Y-76.2
X116.84Y-81.28
X116.84Y-86.36
X116.84Y-91.44
X122.0Y-64.81
X122.0Y-69.81
X129.54Y-76.2
X129.54Y-81.28
X129.54Y-86.36
X129.54Y-91.44
X142.24Y-58.42
X142.24Y-63.42
X144.78Y-73.66
X144.78Y-76.2
X144.78Y-78.74
X144.78Y-81.28
X144.78Y-83.82
X144.78Y-86.36
X144.78Y-88.9
X144.78Y-91.44
X144.78Y-93.98
X144.78Y-96.52
X144.78Y-99.06
X144.78Y-101.6
X144.78Y-104.14
X144.78Y-106.68
X144.82Y-67.31
X149.82Y-67.31
X152.4Y-73.66
X152.4Y-76.2
X152.4Y-78.74
X152.4Y-81.28
X152.4Y-83.82
X152.4Y-86.36
X152.4Y-88.9
X152.4Y-91.44
X152.4Y-93.98
X152.4Y-96.52
X152.4Y-99.06
X152.4Y-101.6
X152.4Y-104.14
X152.4Y-106.68
X165.1Y-78.74
X165.1Y-91.44
X172.72Y-88.9
X172.72Y-91.44
X172.72Y-93.98
X172.72Y-96.52
X180.34Y-88.9
X180.34Y-91.44
X180.34Y-93.98
X180.34Y-96.52
X182.88Y-60.96
X182.88Y-68.58
X185.42Y-90.21
X185.42Y-95.21
X186.69Y-60.96
X186.69Y-66.04
X199.39Y-60.96
X199.39Y-66.04
T2
X154.94Y-58.42
X157.48Y-58.42
X160.02Y-58.42
X162.56Y-58.42
X165.1Y-58.42
X167.64Y-58.42
X170.18Y-58.42
X172.72Y-58.42
T3
X127.0Y-58.42
X137.16Y-58.42
T4
X204.995Y-75.01
X204.995Y-77.51
X204.995Y-80.01
X204.995Y-82.51
X204.995Y-85.01
X216.405Y-77.45
X216.405Y-79.95
X216.405Y-82.45
T5
X108.03Y-69.85
X118.03Y-69.85
X139.7Y-73.66
X139.7Y-76.2
X139.7Y-78.74
X139.7Y-81.28
X139.7Y-83.82
X139.7Y-86.36
X139.7Y-88.9
X139.7Y-91.44
X139.7Y-93.98
X139.7Y-96.52
X139.7Y-99.06
X139.7Y-101.6
X139.7Y-104.14
X139.7Y-106.68
X157.48Y-73.66
X157.48Y-76.2
X157.48Y-78.74
X157.48Y-81.28
X157.48Y-83.82
X157.48Y-86.36
X157.48Y-88.9
X157.48Y-91.44
X157.48Y-93.98
X157.48Y-96.52
X157.48Y-99.06
X157.48Y-101.6
X157.48Y-104.14
X157.48Y-106.68
X215.9Y-96.52
X215.9Y-99.02
X217.17Y-60.96
X217.17Y-63.46
T6
X116.92Y-58.42
X119.46Y-58.42
X122.0Y-58.42
X180.015Y-73.66
X180.015Y-76.2
X180.015Y-78.74
X187.96Y-73.66
X187.96Y-76.2
X187.96Y-78.74
T7
X106.68Y-50.8
X106.68Y-109.22
X218.44Y-50.8
X218.44Y-109.22
T8
X108.03Y-82.76
X108.03Y-89.96
T0
M30
