M48
; DRILL file {KiCad (6.0.8)} date Thu Oct 31 17:49:18 2024
; FORMAT={-:-/ absolute / metric / decimal}
; #@! TF.CreationDate,2024-10-31T17:49:18+09:00
; #@! TF.GenerationSoftware,Kicad,Pcbnew,(6.0.8)
; #@! TF.FileFunction,Plated,1,2,PTH
FMAT,2
METRIC
; #@! TA.AperFunction,Plated,PTH,ComponentDrill
T1C0.800
; #@! TA.AperFunction,Plated,PTH,ComponentDrill
T2C1.100
; #@! TA.AperFunction,Plated,PTH,ComponentDrill
T3C1.200
; #@! TA.AperFunction,Plated,PTH,ComponentDrill
T4C1.500
; #@! TA.AperFunction,Plated,PTH,ComponentDrill
T5C1.600
; #@! TA.AperFunction,Plated,PTH,ViaDrill
T6C3.200
; #@! TA.AperFunction,Plated,PTH,ComponentDrill
T7C4.500
%
G90
G05
T1
X82.13Y-55.88
X82.13Y-66.08
X82.13Y-71.08
X87.22Y-60.96
X87.22Y-63.5
X87.22Y-66.04
X87.22Y-68.58
X88.48Y-39.37
X88.48Y-52.07
X94.83Y-55.88
X94.84Y-60.96
X94.84Y-63.5
X94.84Y-66.04
X94.84Y-68.58
X113.88Y-72.39
X126.58Y-72.39
X130.39Y-59.69
X130.39Y-72.39
T2
X99.91Y-43.18
X102.45Y-43.18
X104.99Y-43.18
T3
X74.51Y-39.37
X74.51Y-46.87
X139.7Y-42.207
X139.7Y-49.707
T4
X116.28Y-46.99
X124.18Y-46.99
T5
X102.45Y-57.15
X102.45Y-72.39
T6
X63.5Y-35.56
X63.5Y-81.28
X147.32Y-35.56
X147.32Y-81.28
T7
X66.89Y-62.23
X66.89Y-69.43
X144.36Y-62.44
X144.36Y-69.64
T0
M30
