%TF.GenerationSoftware,KiCad,Pcbnew,(6.0.8)*%
%TF.CreationDate,2024-10-31T16:59:06+09:00*%
%TF.ProjectId,MIRS2405_OVD_pcb,4d495253-3234-4303-955f-4f56445f7063,rev?*%
%TF.SameCoordinates,Original*%
%TF.FileFunction,Copper,L2,Bot*%
%TF.FilePolarity,Positive*%
%FSLAX46Y46*%
G04 Gerber Fmt 4.6, Leading zero omitted, Abs format (unit mm)*
G04 Created by KiCad (PCBNEW (6.0.8)) date 2024-10-31 16:59:06*
%MOMM*%
%LPD*%
G01*
G04 APERTURE LIST*
G04 Aperture macros list*
%AMRoundRect*
0 Rectangle with rounded corners*
0 $1 Rounding radius*
0 $2 $3 $4 $5 $6 $7 $8 $9 X,Y pos of 4 corners*
0 Add a 4 corners polygon primitive as box body*
4,1,4,$2,$3,$4,$5,$6,$7,$8,$9,$2,$3,0*
0 Add four circle primitives for the rounded corners*
1,1,$1+$1,$2,$3*
1,1,$1+$1,$4,$5*
1,1,$1+$1,$6,$7*
1,1,$1+$1,$8,$9*
0 Add four rect primitives between the rounded corners*
20,1,$1+$1,$2,$3,$4,$5,0*
20,1,$1+$1,$4,$5,$6,$7,0*
20,1,$1+$1,$6,$7,$8,$9,0*
20,1,$1+$1,$8,$9,$2,$3,0*%
G04 Aperture macros list end*
%TA.AperFunction,ComponentPad*%
%ADD10C,1.600000*%
%TD*%
%TA.AperFunction,ComponentPad*%
%ADD11O,1.600000X1.600000*%
%TD*%
%TA.AperFunction,ComponentPad*%
%ADD12RoundRect,0.250000X-0.750000X0.600000X-0.750000X-0.600000X0.750000X-0.600000X0.750000X0.600000X0*%
%TD*%
%TA.AperFunction,ComponentPad*%
%ADD13O,2.000000X1.700000*%
%TD*%
%TA.AperFunction,ViaPad*%
%ADD14C,3.500000*%
%TD*%
%TA.AperFunction,Conductor*%
%ADD15C,0.500000*%
%TD*%
%TA.AperFunction,Conductor*%
%ADD16C,0.250000*%
%TD*%
G04 APERTURE END LIST*
D10*
%TO.P,R4,1*%
%TO.N,Net-(J1-Pad1)*%
X92710000Y-111760000D03*
D11*
%TO.P,R4,2*%
%TO.N,GND*%
X102870000Y-111760000D03*
%TD*%
D10*
%TO.P,R3,1*%
%TO.N,Net-(R2-Pad2)*%
X92710000Y-106680000D03*
D11*
%TO.P,R3,2*%
%TO.N,Net-(J1-Pad1)*%
X102870000Y-106680000D03*
%TD*%
D10*
%TO.P,R2,1*%
%TO.N,Net-(R1-Pad2)*%
X92710000Y-101600000D03*
D11*
%TO.P,R2,2*%
%TO.N,Net-(R2-Pad2)*%
X102870000Y-101600000D03*
%TD*%
D10*
%TO.P,R1,1*%
%TO.N,VDC*%
X92710000Y-96520000D03*
D11*
%TO.P,R1,2*%
%TO.N,Net-(R1-Pad2)*%
X102870000Y-96520000D03*
%TD*%
D12*
%TO.P,J2,1,Pin_1*%
%TO.N,VDC*%
X113030000Y-97790000D03*
D13*
%TO.P,J2,2,Pin_2*%
%TO.N,GND*%
X113030000Y-100290000D03*
%TD*%
D12*
%TO.P,J1,1,Pin_1*%
%TO.N,Net-(J1-Pad1)*%
X113030000Y-109220000D03*
D13*
%TO.P,J1,2,Pin_2*%
%TO.N,GND*%
X113030000Y-111720000D03*
%TD*%
D14*
%TO.N,*%
X92710000Y-119380000D03*
X92710000Y-90170000D03*
X114300000Y-90170000D03*
X114300000Y-119380000D03*
%TD*%
D15*
%TO.N,GND*%
X114260000Y-100290000D02*
X113030000Y-100290000D01*
X116840000Y-102870000D02*
X114260000Y-100290000D01*
X116840000Y-109220000D02*
X116840000Y-102870000D01*
X114340000Y-111720000D02*
X116840000Y-109220000D01*
X113030000Y-111720000D02*
X114340000Y-111720000D01*
%TO.N,VDC*%
X92710000Y-95250000D02*
X92710000Y-96520000D01*
X111760000Y-93980000D02*
X93980000Y-93980000D01*
X93980000Y-93980000D02*
X92710000Y-95250000D01*
X113030000Y-95250000D02*
X111760000Y-93980000D01*
X113030000Y-97790000D02*
X113030000Y-95250000D01*
%TO.N,Net-(J1-Pad1)*%
X110490000Y-106680000D02*
X102870000Y-106680000D01*
X113030000Y-109220000D02*
X110490000Y-106680000D01*
D16*
%TO.N,GND*%
X102910000Y-111720000D02*
X102870000Y-111760000D01*
D15*
X113030000Y-111720000D02*
X102910000Y-111720000D01*
%TO.N,Net-(J1-Pad1)*%
X101600000Y-109220000D02*
X102870000Y-107950000D01*
X93980000Y-109220000D02*
X101600000Y-109220000D01*
X92710000Y-110490000D02*
X93980000Y-109220000D01*
X102870000Y-107950000D02*
X102870000Y-106680000D01*
X92710000Y-111760000D02*
X92710000Y-110490000D01*
%TO.N,Net-(R2-Pad2)*%
X102870000Y-102870000D02*
X102870000Y-101600000D01*
X93980000Y-104140000D02*
X101600000Y-104140000D01*
X101600000Y-104140000D02*
X102870000Y-102870000D01*
X92710000Y-105410000D02*
X93980000Y-104140000D01*
X92710000Y-106680000D02*
X92710000Y-105410000D01*
%TO.N,Net-(R1-Pad2)*%
X93980000Y-99060000D02*
X101600000Y-99060000D01*
X102870000Y-97790000D02*
X102870000Y-96520000D01*
X92710000Y-100330000D02*
X93980000Y-99060000D01*
X92710000Y-101600000D02*
X92710000Y-100330000D01*
X101600000Y-99060000D02*
X102870000Y-97790000D01*
%TD*%
M02*
