%TF.GenerationSoftware,KiCad,Pcbnew,(6.0.8)*%
%TF.CreationDate,2024-10-31T17:49:09+09:00*%
%TF.ProjectId,MIRS2405_ServoDCDC,4d495253-3234-4303-955f-536572766f44,rev?*%
%TF.SameCoordinates,Original*%
%TF.FileFunction,Copper,L2,Bot*%
%TF.FilePolarity,Positive*%
%FSLAX46Y46*%
G04 Gerber Fmt 4.6, Leading zero omitted, Abs format (unit mm)*
G04 Created by KiCad (PCBNEW (6.0.8)) date 2024-10-31 17:49:09*
%MOMM*%
%LPD*%
G01*
G04 APERTURE LIST*
G04 Aperture macros list*
%AMRoundRect*
0 Rectangle with rounded corners*
0 $1 Rounding radius*
0 $2 $3 $4 $5 $6 $7 $8 $9 X,Y pos of 4 corners*
0 Add a 4 corners polygon primitive as box body*
4,1,4,$2,$3,$4,$5,$6,$7,$8,$9,$2,$3,0*
0 Add four circle primitives for the rounded corners*
1,1,$1+$1,$2,$3*
1,1,$1+$1,$4,$5*
1,1,$1+$1,$6,$7*
1,1,$1+$1,$8,$9*
0 Add four rect primitives between the rounded corners*
20,1,$1+$1,$2,$3,$4,$5,0*
20,1,$1+$1,$4,$5,$6,$7,0*
20,1,$1+$1,$6,$7,$8,$9,0*
20,1,$1+$1,$8,$9,$2,$3,0*%
G04 Aperture macros list end*
%TA.AperFunction,Profile*%
%ADD10C,0.100000*%
%TD*%
%TA.AperFunction,ComponentPad*%
%ADD11C,1.600000*%
%TD*%
%TA.AperFunction,ComponentPad*%
%ADD12O,1.600000X1.600000*%
%TD*%
%TA.AperFunction,ComponentPad*%
%ADD13R,1.905000X2.000000*%
%TD*%
%TA.AperFunction,ComponentPad*%
%ADD14O,1.905000X2.000000*%
%TD*%
%TA.AperFunction,ComponentPad*%
%ADD15RoundRect,1.500000X1.500000X-1.500000X1.500000X1.500000X-1.500000X1.500000X-1.500000X-1.500000X0*%
%TD*%
%TA.AperFunction,ComponentPad*%
%ADD16C,6.000000*%
%TD*%
%TA.AperFunction,ComponentPad*%
%ADD17R,2.400000X2.400000*%
%TD*%
%TA.AperFunction,ComponentPad*%
%ADD18C,2.400000*%
%TD*%
%TA.AperFunction,ComponentPad*%
%ADD19R,3.200000X3.200000*%
%TD*%
%TA.AperFunction,ComponentPad*%
%ADD20O,3.200000X3.200000*%
%TD*%
%TA.AperFunction,ComponentPad*%
%ADD21C,3.000000*%
%TD*%
%TA.AperFunction,ComponentPad*%
%ADD22R,1.600000X1.600000*%
%TD*%
%TA.AperFunction,ViaPad*%
%ADD23C,5.200000*%
%TD*%
%TA.AperFunction,Conductor*%
%ADD24C,2.000000*%
%TD*%
%TA.AperFunction,Conductor*%
%ADD25C,0.500000*%
%TD*%
%TA.AperFunction,Conductor*%
%ADD26C,0.250000*%
%TD*%
G04 APERTURE END LIST*
D10*
X152400000Y-30480000D02*
X58420000Y-30480000D01*
X58420000Y-86360000D02*
X152400000Y-86360000D01*
X58420000Y-86360000D02*
X58420000Y-30480000D01*
X152400000Y-86360000D02*
X152400000Y-30480000D01*
D11*
%TO.P,R2,1*%
%TO.N,+BATT*%
X88480000Y-39370000D03*
D12*
%TO.P,R2,2*%
%TO.N,Net-(Q1-Pad1)*%
X88480000Y-52070000D03*
%TD*%
D11*
%TO.P,R4,1*%
%TO.N,Net-(R3-Pad1)*%
X126580000Y-72390000D03*
D12*
%TO.P,R4,2*%
%TO.N,GND*%
X113880000Y-72390000D03*
%TD*%
D13*
%TO.P,Q1,1,B*%
%TO.N,Net-(Q1-Pad1)*%
X99910000Y-43180000D03*
D14*
%TO.P,Q1,2,C*%
%TO.N,Net-(D1-Pad1)*%
X102450000Y-43180000D03*
%TO.P,Q1,3,E*%
%TO.N,+BATT*%
X104990000Y-43180000D03*
%TD*%
D11*
%TO.P,C1,1*%
%TO.N,Net-(C1-Pad1)*%
X82130000Y-66080000D03*
%TO.P,C1,2*%
%TO.N,GND*%
X82130000Y-71080000D03*
%TD*%
D15*
%TO.P,J1,1,Pin_2*%
%TO.N,GND*%
X66890000Y-69430000D03*
D16*
%TO.P,J1,2,Pin_1*%
%TO.N,+BATT*%
X66890000Y-62230000D03*
%TD*%
D15*
%TO.P,J2,1,Pin_2*%
%TO.N,GND*%
X144360000Y-69640000D03*
D16*
%TO.P,J2,2,Pin_1*%
%TO.N,Net-(C3-Pad1)*%
X144360000Y-62440000D03*
%TD*%
D17*
%TO.P,C3,1*%
%TO.N,Net-(C3-Pad1)*%
X139700000Y-42207246D03*
D18*
%TO.P,C3,2*%
%TO.N,GND*%
X139700000Y-49707246D03*
%TD*%
D19*
%TO.P,D1,1,K*%
%TO.N,Net-(D1-Pad1)*%
X102450000Y-57150000D03*
D20*
%TO.P,D1,2,A*%
%TO.N,GND*%
X102450000Y-72390000D03*
%TD*%
D21*
%TO.P,L1,1,1*%
%TO.N,Net-(D1-Pad1)*%
X116280000Y-46990000D03*
%TO.P,L1,2,2*%
%TO.N,Net-(C3-Pad1)*%
X124180000Y-46990000D03*
%TD*%
D11*
%TO.P,R3,1*%
%TO.N,Net-(R3-Pad1)*%
X130390000Y-72390000D03*
D12*
%TO.P,R3,2*%
%TO.N,Net-(C3-Pad1)*%
X130390000Y-59690000D03*
%TD*%
D17*
%TO.P,C2,1*%
%TO.N,+BATT*%
X74510000Y-39370000D03*
D18*
%TO.P,C2,2*%
%TO.N,GND*%
X74510000Y-46870000D03*
%TD*%
D22*
%TO.P,U1,1,Cs*%
%TO.N,Net-(R1-Pad1)*%
X87220000Y-60960000D03*
D12*
%TO.P,U1,2,Es*%
%TO.N,GND*%
X87220000Y-63500000D03*
%TO.P,U1,3,Ct*%
%TO.N,Net-(C1-Pad1)*%
X87220000Y-66040000D03*
%TO.P,U1,4,GND*%
%TO.N,GND*%
X87220000Y-68580000D03*
%TO.P,U1,5,INV*%
%TO.N,Net-(R3-Pad1)*%
X94840000Y-68580000D03*
%TO.P,U1,6,V+*%
%TO.N,+BATT*%
X94840000Y-66040000D03*
%TO.P,U1,7,SI*%
X94840000Y-63500000D03*
%TO.P,U1,8,Cd*%
%TO.N,Net-(R1-Pad1)*%
X94840000Y-60960000D03*
%TD*%
D11*
%TO.P,R1,1*%
%TO.N,Net-(R1-Pad1)*%
X94830000Y-55880000D03*
D12*
%TO.P,R1,2*%
%TO.N,Net-(Q1-Pad1)*%
X82130000Y-55880000D03*
%TD*%
D23*
%TO.N,*%
X147320000Y-81280000D03*
X63500000Y-81280000D03*
X63500000Y-35560000D03*
X147320000Y-35560000D03*
%TD*%
D24*
%TO.N,+BATT*%
X104990000Y-40180000D02*
X104990000Y-43180000D01*
D25*
X94840000Y-63500000D02*
X97370000Y-60970000D01*
D24*
X66890000Y-41910000D02*
X69430000Y-39370000D01*
D25*
X79590000Y-50800000D02*
X88480000Y-41910000D01*
X97370000Y-54610000D02*
X94830000Y-52070000D01*
X92290000Y-52070000D02*
X84670000Y-59690000D01*
X88480000Y-41910000D02*
X88480000Y-39370000D01*
D24*
X69430000Y-39370000D02*
X74510000Y-39370000D01*
X104180000Y-39370000D02*
X104990000Y-40180000D01*
D25*
X94830000Y-52070000D02*
X92290000Y-52070000D01*
D24*
X66890000Y-62230000D02*
X66890000Y-41910000D01*
D25*
X80860000Y-59690000D02*
X79590000Y-58420000D01*
D24*
X74510000Y-39370000D02*
X88480000Y-39370000D01*
X88480000Y-39370000D02*
X104180000Y-39370000D01*
D25*
X94840000Y-63500000D02*
X94840000Y-66040000D01*
X84670000Y-59690000D02*
X80860000Y-59690000D01*
X79590000Y-58420000D02*
X79590000Y-50800000D01*
X97370000Y-60970000D02*
X97370000Y-54610000D01*
D24*
%TO.N,GND*%
X142240000Y-76200000D02*
X144360000Y-74080000D01*
X142240000Y-76200000D02*
X104140000Y-76200000D01*
D25*
X87220000Y-63500000D02*
X88480000Y-63500000D01*
X82130000Y-71080000D02*
X84730000Y-71080000D01*
D24*
X74510000Y-67310000D02*
X74510000Y-46870000D01*
D25*
X87220000Y-73650000D02*
X84670000Y-76200000D01*
D24*
X104140000Y-74080000D02*
X104140000Y-76200000D01*
X140760000Y-69640000D02*
X144360000Y-69640000D01*
D25*
X84730000Y-71080000D02*
X87220000Y-68590000D01*
D24*
X139700000Y-68580000D02*
X140760000Y-69640000D01*
D25*
X87220000Y-68580000D02*
X87220000Y-73650000D01*
D24*
X104140000Y-76200000D02*
X84670000Y-76200000D01*
D25*
X88480000Y-63500000D02*
X89750000Y-64770000D01*
X89750000Y-67310000D02*
X88480000Y-68580000D01*
D24*
X102450000Y-72390000D02*
X104140000Y-74080000D01*
X84670000Y-76200000D02*
X73660000Y-76200000D01*
X73660000Y-76200000D02*
X66890000Y-69430000D01*
X66890000Y-69430000D02*
X72390000Y-69430000D01*
X144360000Y-74080000D02*
X144360000Y-69640000D01*
X72390000Y-69430000D02*
X74510000Y-67310000D01*
X139700000Y-49707246D02*
X139700000Y-68580000D01*
D25*
X89750000Y-64770000D02*
X89750000Y-67310000D01*
X113880000Y-72390000D02*
X102450000Y-72390000D01*
X88480000Y-68580000D02*
X87220000Y-68580000D01*
%TO.N,Net-(C1-Pad1)*%
X82130000Y-66080000D02*
X87190000Y-66080000D01*
D26*
X87190000Y-66080000D02*
X87220000Y-66050000D01*
D24*
%TO.N,Net-(C3-Pad1)*%
X144360000Y-43667246D02*
X144360000Y-62440000D01*
X128962754Y-42207246D02*
X139700000Y-42207246D01*
X124180000Y-46990000D02*
X128962754Y-42207246D01*
X139700000Y-42207246D02*
X142900000Y-42207246D01*
X142900000Y-42207246D02*
X144360000Y-43667246D01*
D25*
X124180000Y-53480000D02*
X130390000Y-59690000D01*
X124180000Y-46990000D02*
X124180000Y-53480000D01*
D24*
%TO.N,Net-(D1-Pad1)*%
X102450000Y-57150000D02*
X106120000Y-57150000D01*
X102450000Y-43180000D02*
X102450000Y-57150000D01*
X106120000Y-57150000D02*
X116280000Y-46990000D01*
D25*
%TO.N,Net-(Q1-Pad1)*%
X85940000Y-52070000D02*
X82130000Y-55880000D01*
X99910000Y-43180000D02*
X91020000Y-43180000D01*
X91020000Y-43180000D02*
X88480000Y-45720000D01*
X88480000Y-45720000D02*
X88480000Y-52070000D01*
X88480000Y-52070000D02*
X85940000Y-52070000D01*
D26*
%TO.N,Net-(R1-Pad1)*%
X94830000Y-60950000D02*
X94840000Y-60960000D01*
D25*
X94840000Y-60960000D02*
X87220000Y-60960000D01*
X94830000Y-55880000D02*
X94830000Y-60950000D01*
%TO.N,Net-(R3-Pad1)*%
X122770000Y-68580000D02*
X94840000Y-68580000D01*
X126580000Y-72390000D02*
X130390000Y-72390000D01*
X126580000Y-72390000D02*
X122770000Y-68580000D01*
%TD*%
%TA.AperFunction,Conductor*%
%TO.N,+BATT*%
G36*
X107892121Y-31770002D02*
G01*
X107938614Y-31823658D01*
X107950000Y-31876000D01*
X107950000Y-44324000D01*
X107929998Y-44392121D01*
X107876342Y-44438614D01*
X107824000Y-44450000D01*
X104266000Y-44450000D01*
X104197879Y-44429998D01*
X104151386Y-44376342D01*
X104140000Y-44324000D01*
X104140000Y-40640000D01*
X71120000Y-40640000D01*
X71120000Y-62104000D01*
X71099998Y-62172121D01*
X71046342Y-62218614D01*
X70994000Y-62230000D01*
X61086000Y-62230000D01*
X61017879Y-62209998D01*
X60971386Y-62156342D01*
X60960000Y-62104000D01*
X60960000Y-39496000D01*
X60980002Y-39427879D01*
X61033658Y-39381386D01*
X61086000Y-39370000D01*
X67310000Y-39370000D01*
X67310000Y-31876000D01*
X67330002Y-31807879D01*
X67383658Y-31761386D01*
X67436000Y-31750000D01*
X107824000Y-31750000D01*
X107892121Y-31770002D01*
G37*
%TD.AperFunction*%
%TD*%
%TA.AperFunction,Conductor*%
%TO.N,Net-(C3-Pad1)*%
G36*
X143452121Y-31770002D02*
G01*
X143498614Y-31823658D01*
X143510000Y-31876000D01*
X143510000Y-39370000D01*
X149734000Y-39370000D01*
X149802121Y-39390002D01*
X149848614Y-39443658D01*
X149860000Y-39496000D01*
X149860000Y-64644000D01*
X149839998Y-64712121D01*
X149786342Y-64758614D01*
X149734000Y-64770000D01*
X142366000Y-64770000D01*
X142297879Y-64749998D01*
X142251386Y-64696342D01*
X142240000Y-64644000D01*
X142240000Y-46990000D01*
X137160000Y-46990000D01*
X137160000Y-60834000D01*
X137139998Y-60902121D01*
X137086342Y-60948614D01*
X137034000Y-60960000D01*
X122046000Y-60960000D01*
X121977879Y-60939998D01*
X121931386Y-60886342D01*
X121920000Y-60834000D01*
X121920000Y-31876000D01*
X121940002Y-31807879D01*
X121993658Y-31761386D01*
X122046000Y-31750000D01*
X143384000Y-31750000D01*
X143452121Y-31770002D01*
G37*
%TD.AperFunction*%
%TD*%
%TA.AperFunction,Conductor*%
%TO.N,GND*%
G36*
X76142121Y-44470002D02*
G01*
X76188614Y-44523658D01*
X76200000Y-44576000D01*
X76200000Y-74930000D01*
X99060000Y-74930000D01*
X99060000Y-69976000D01*
X99080002Y-69907879D01*
X99133658Y-69861386D01*
X99186000Y-69850000D01*
X106554000Y-69850000D01*
X106622121Y-69870002D01*
X106668614Y-69923658D01*
X106680000Y-69976000D01*
X106680000Y-74930000D01*
X135890000Y-74930000D01*
X135890000Y-66166000D01*
X135910002Y-66097879D01*
X135963658Y-66051386D01*
X136016000Y-66040000D01*
X149734000Y-66040000D01*
X149802121Y-66060002D01*
X149848614Y-66113658D01*
X149860000Y-66166000D01*
X149860000Y-77344000D01*
X149839998Y-77412121D01*
X149786342Y-77458614D01*
X149734000Y-77470000D01*
X143510000Y-77470000D01*
X143510000Y-84964000D01*
X143489998Y-85032121D01*
X143436342Y-85078614D01*
X143384000Y-85090000D01*
X67436000Y-85090000D01*
X67367879Y-85069998D01*
X67321386Y-85016342D01*
X67310000Y-84964000D01*
X67310000Y-77470000D01*
X61086000Y-77470000D01*
X61017879Y-77449998D01*
X60971386Y-77396342D01*
X60960000Y-77344000D01*
X60960000Y-66166000D01*
X60980002Y-66097879D01*
X61033658Y-66051386D01*
X61086000Y-66040000D01*
X72390000Y-66040000D01*
X72390000Y-44576000D01*
X72410002Y-44507879D01*
X72463658Y-44461386D01*
X72516000Y-44450000D01*
X76074000Y-44450000D01*
X76142121Y-44470002D01*
G37*
%TD.AperFunction*%
%TD*%
%TA.AperFunction,Conductor*%
%TO.N,Net-(D1-Pad1)*%
G36*
X118052121Y-43200002D02*
G01*
X118098614Y-43253658D01*
X118110000Y-43306000D01*
X118110000Y-60834000D01*
X118089998Y-60902121D01*
X118036342Y-60948614D01*
X117984000Y-60960000D01*
X100456000Y-60960000D01*
X100387879Y-60939998D01*
X100341386Y-60886342D01*
X100330000Y-60834000D01*
X100330000Y-45846000D01*
X100350002Y-45777879D01*
X100403658Y-45731386D01*
X100456000Y-45720000D01*
X111760000Y-45720000D01*
X111760000Y-43306000D01*
X111780002Y-43237879D01*
X111833658Y-43191386D01*
X111886000Y-43180000D01*
X117984000Y-43180000D01*
X118052121Y-43200002D01*
G37*
%TD.AperFunction*%
%TD*%
M02*
